#!OML:ASF I:\Actors\actors\Patient Classification 2\Patient 1\Session 1\actor1.ASF
:FULLY-SPECIFIED
:DEGREES
209
root -0.478002 18.5995 4.6517 -2.01309 -5.83174 -2.85612
lowerback 26.6127 0.963908 0.644998
upperback 14.236 1.31093 1.43794
thorax 1.09906 0.58809 0.870024
lowerneck -7.2246 -1.30902 0.964818
upperneck 24.3399 -2.99538 4.17753
head 8.83313 -0.909395 0.961861
rclavicle -9.93923e-017 2.95195e-014
rhumerus -4.14359 63.5059 -88.2682
rradius 142.734
rwrist -12.6052
rhand -41.7558 -34.5172
rfingers 7.12502
rthumb -14.6599 -63.979
lclavicle -9.93923e-017 2.95195e-014
lhumerus 9.26064 -63.7945 85.4046
lradius 135.991
lwrist 24.932
lhand -37.1419 -58.0776
lfingers 7.12502
lthumb -10.2116 -28.3455
rfemur 6.11066 1.90661 16.4978
rtibia 7.95139e-015
rfoot -11.2903 -12.1137
rtoes -9.94598
lfemur -8.9839 1.53002 -11.718
ltibia 29.0557
lfoot -19.1648 9.50713
ltoes -56.1919
210
root -0.473142 18.5999 4.63718 -1.88715 -6.00605 -2.73403
lowerback 26.8166 1.01945 0.57853
upperback 14.4956 1.35676 1.32555
thorax 1.30227 0.609991 0.775726
lowerneck -7.23492 -1.27793 0.979512
upperneck 24.6366 -2.99578 4.28551
head 8.94 -0.89173 0.997591
rclavicle 2.54941e-014 -9.98893e-015
rhumerus -4.68202 63.8984 -88.7334
rradius 142.568
rwrist -12.1263
rhand -42.4812 -34.6346
rfingers 7.12502
rthumb -15.3587 -64.0441
lclavicle 2.54941e-014 -9.98893e-015
lhumerus 9.07252 -64.1198 85.3218
lradius 136.115
lwrist 25.2431
lhand -37.1952 -58.2251
lfingers 7.12502
lthumb -10.263 -28.4955
rfemur 5.87387 2.07687 16.3491
rtibia -2.78299e-014
rfoot -11.2492 -12.1584
rtoes -9.82233
lfemur -9.09379 1.76587 -11.8454
ltibia 28.9427
lfoot -19.0556 9.53829
ltoes -56.2571
211
root -0.468815 18.6032 4.62407 -1.81141 -6.21905 -2.64552
lowerback 27.0945 1.03666 0.440962
upperback 14.682 1.33963 1.2258
thorax 1.38803 0.594844 0.748798
lowerneck -7.15864 -1.18324 0.92409
upperneck 24.8891 -2.88034 4.33766
head 9.01268 -0.834938 1.03798
rclavicle 1.07344e-014 -1.46604e-014
rhumerus -4.97092 64.1519 -89.0634
rradius 142.624
rwrist -12.138
rhand -42.4387 -35.2348
rfingers 7.12502
rthumb -15.3177 -64.6475
lclavicle 1.07344e-014 -1.46604e-014
lhumerus 8.6858 -64.2014 85.45
lradius 136.166
lwrist 25.2841
lhand -37.2199 -58.3388
lfingers 7.12502
lthumb -10.2867 -28.6104
rfemur 5.69512 2.2871 16.2472
rtibia 1.59028e-015
rfoot -11.2256 -12.2035
rtoes -9.66543
lfemur -9.10595 1.93439 -11.9409
ltibia 28.797
lfoot -19.0092 9.60118
ltoes -56.2147
212
root -0.464189 18.6086 4.61087 -1.7867 -6.49517 -2.536
lowerback 27.4914 1.12238 0.17329
upperback 14.7809 1.38199 1.1814
thorax 1.31551 0.598484 0.83815
lowerneck -7.06656 -1.12671 0.765955
upperneck 25.1097 -2.80378 4.41049
head 9.07334 -0.80434 1.09934
rclavicle -2.73329e-015 -1.26725e-014
rhumerus -5.19155 64.1921 -89.2812
rradius 142.618
rwrist -11.9835
rhand -41.9451 -35.4279
rfingers 7.12502
rthumb -14.8422 -64.8764
lclavicle -2.73329e-015 -1.26725e-014
lhumerus 8.19225 -64.3106 85.8458
lradius 136.212
lwrist 25.3335
lhand -37.2609 -58.545
lfingers 7.12502
lthumb -10.3263 -28.8186
rfemur 5.56067 2.56381 16.1283
rtibia -2.94201e-014
rfoot -11.1763 -12.257
rtoes -9.70448
lfemur -9.02159 2.06911 -12.0666
ltibia 28.6216
lfoot -18.9869 9.71229
ltoes -56.1876
213
root -0.460614 18.616 4.59725 -1.767 -6.84013 -2.4197
lowerback 27.9912 1.28651 -0.0909948
upperback 14.8049 1.52103 1.09844
thorax 1.11107 0.652992 0.855712
lowerneck -7.15203 -1.12492 0.746027
upperneck 25.3373 -2.84336 4.5358
head 9.17269 -0.806761 1.14303
rclavicle -1.4884e-014 -1.46852e-014
rhumerus -5.57001 64.2912 -89.637
rradius 142.522
rwrist -11.7594
rhand -42.1856 -35.2189
rfingers 7.12502
rthumb -15.0739 -64.6501
lclavicle -1.4884e-014 -1.46852e-014
lhumerus 7.96541 -64.5903 86.0317
lradius 136.334
lwrist 25.4949
lhand -37.2802 -58.5831
lfingers 7.12502
lthumb -10.3449 -28.8576
rfemur 5.42473 2.90925 16.0098
rtibia 1.59028e-015
rfoot -11.1299 -12.3093
rtoes -9.61607
lfemur -8.92095 2.27993 -12.1864
ltibia 28.4691
lfoot -19.0012 9.80223
ltoes -56.1424
214
root -0.454913 18.6257 4.58286 -1.65561 -7.07463 -2.34158
lowerback 28.4323 1.37709 -0.244386
upperback 14.7705 1.59138 0.98799
thorax 0.871697 0.682503 0.796644
lowerneck -7.31781 -1.12609 0.824069
upperneck 25.4471 -2.89961 4.65836
head 9.24584 -0.809166 1.16611
rclavicle 1.36509e-014 -1.02995e-014
rhumerus -5.89676 64.4208 -89.9431
rradius 142.38
rwrist -11.1397
rhand -42.4465 -35.0719
rfingers 7.12502
rthumb -15.3252 -64.484
lclavicle 1.36509e-014 -1.02995e-014
lhumerus 7.95939 -64.8496 85.9997
lradius 136.482
lwrist 25.4649
lhand -37.2812 -58.483
lfingers 7.12502
lthumb -10.3459 -28.7575
rfemur 5.20796 3.13705 15.9194
rtibia -9.93923e-015
rfoot -11.076 -12.3635
rtoes -9.47103
lfemur -9.00212 2.42949 -12.269
ltibia 28.4092
lfoot -19.0548 9.84361
ltoes -56.0581
215
root -0.446067 18.6365 4.56101 -1.28221 -7.07352 -2.53219
lowerback 28.7149 1.29361 -0.0627218
upperback 14.6402 1.52765 0.950586
thorax 0.602008 0.662882 0.662931
lowerneck -7.46166 -1.1393 1.05881
upperneck 25.3105 -2.91563 4.49757
head 9.22046 -0.812233 1.06709
rclavicle 3.37934e-015 -1.14425e-014
rhumerus -5.73881 64.484 -89.8357
rradius 142.341
rwrist -10.9777
rhand -42.5368 -34.7423
rfingers 7.12502
rthumb -15.4123 -64.1478
lclavicle 3.37934e-015 -1.14425e-014
lhumerus 7.97559 -65.0167 86.0386
lradius 136.626
lwrist 25.3351
lhand -37.1311 -58.3169
lfingers 7.12502
lthumb -10.2011 -28.5842
rfemur 4.73314 3.10617 16.1017
rtibia -2.78299e-015
rfoot -10.9737 -12.4439
rtoes -9.39329
lfemur -9.49948 2.35776 -12.0757
ltibia 28.4564
lfoot -19.0332 9.91662
ltoes -55.9685
216
root -0.437675 18.6443 4.52972 -0.779281 -6.97362 -2.92887
lowerback 29.0051 1.12881 0.273537
upperback 14.454 1.40473 0.985565
thorax 0.267374 0.618505 0.536065
lowerneck -7.62024 -1.12426 1.47767
upperneck 24.9247 -2.83915 4.03743
head 9.10135 -0.791143 0.841977
rclavicle -7.35503e-015 -3.926e-015
rhumerus -4.99082 64.4863 -89.2244
rradius 142.411
rwrist -11.2544
rhand -42.5226 -34.2748
rfingers 7.12502
rthumb -15.3986 -63.6813
lclavicle -7.35503e-015 -3.926e-015
lhumerus 8.11183 -65.1363 86.0275
lradius 136.768
lwrist 25.1816
lhand -36.9642 -58.1125
lfingers 7.12502
lthumb -10.0401 -28.372
rfemur 4.11351 2.96911 16.5121
rtibia 4.77083e-015
rfoot -10.8383 -12.5625
rtoes -9.36546
lfemur -10.2425 2.28041 -11.6471
ltibia 28.6101
lfoot -18.8937 9.95532
ltoes -55.9394
217
root -0.430123 18.6466 4.49621 -0.441197 -6.97198 -3.0922
lowerback 29.7325 1.07796 0.244194
upperback 14.1185 1.34132 1.02448
thorax -0.44128 0.582302 0.599369
lowerneck -7.859 -1.09335 1.66653
upperneck 24.6769 -2.75338 3.73927
head 9.05133 -0.766749 0.713773
rclavicle -2.73329e-015 -1.5704e-014
rhumerus -4.4298 64.5326 -88.7424
rradius 142.47
rwrist -11.3856
rhand -42.5735 -34.1638
rfingers 7.12502
rthumb -15.4476 -63.5665
lclavicle -2.73329e-015 -1.5704e-014
lhumerus 7.70534 -65.2821 86.5957
lradius 136.911
lwrist 24.9196
lhand -36.8317 -58.1825
lfingers 7.12502
lthumb -9.91232 -28.4359
rfemur 3.62363 2.94641 16.6683
rtibia -8.34896e-015
rfoot -10.6967 -12.6799
rtoes -9.32444
lfemur -10.8652 2.34859 -11.4741
ltibia 28.8688
lfoot -18.7754 9.94796
ltoes -55.9639
218
root -0.423859 18.6438 4.46259 -0.222588 -7.08297 -3.07349
lowerback 30.5389 1.09783 0.171068
upperback 13.8132 1.34575 0.897598
thorax -1.14499 0.584693 0.486646
lowerneck -8.3159 -1.08074 1.66722
upperneck 24.6541 -2.78669 3.88448
head 9.13286 -0.762249 0.757024
rclavicle 3.18055e-015 1.68967e-015
rhumerus -3.69188 64.1863 -88.2928
rradius 142.575
rwrist -12.1572
rhand -42.3319 -33.656
rfingers 7.12502
rthumb -15.2149 -63.0765
lclavicle 3.18055e-015 1.68967e-015
lhumerus 7.42773 -65.5663 86.9497
lradius 137.075
lwrist 24.7912
lhand -36.4046 -58.4645
lfingers 7.12502
lthumb -9.5002 -28.6986
rfemur 3.22793 3.04409 16.6255
rtibia 2.38542e-015
rfoot -10.5586 -12.7716
rtoes -9.10984
lfemur -11.3815 2.51309 -11.5014
ltibia 29.1951
lfoot -18.7271 9.89468
ltoes -55.9158
219
root -0.417339 18.6364 4.4275 -0.0378547 -7.21318 -3.10523
lowerback 31.2526 1.09057 0.116056
upperback 13.6135 1.31682 0.792894
thorax -1.68418 0.569792 0.40037
lowerneck -8.7439 -1.03351 1.56106
upperneck 24.4719 -2.74396 4.03099
head 9.15299 -0.735591 0.826221
rclavicle -8.64713e-015 3.8763e-015
rhumerus -2.78365 64.4435 -87.5846
rradius 142.549
rwrist -11.6353
rhand -42.7878 -34.252
rfingers 7.12502
rthumb -15.654 -63.6387
lclavicle -8.64713e-015 3.8763e-015
lhumerus 7.60722 -65.6258 86.8782
lradius 137.281
lwrist 24.7649
lhand -35.9574 -58.4776
lfingers 7.12502
lthumb -9.06868 -28.6926
rfemur 2.87169 3.16301 16.6388
rtibia 3.97569e-016
rfoot -10.441 -12.8735
rtoes -9.04498
lfemur -11.88 2.73718 -11.4716
ltibia 29.5534
lfoot -18.6611 9.80189
ltoes -55.8934
220
root -0.41292 18.6264 4.39285 0.0578154 -7.41285 -3.17709
lowerback 32.1579 1.09182 0.0601972
upperback 13.4016 1.29517 0.696852
thorax -2.31852 0.556989 0.319609
lowerneck -8.82893 -0.978046 1.91675
upperneck 23.9114 -2.61607 3.64976
head 8.96229 -0.694692 0.645728
rclavicle 7.05686e-015 7.55382e-015
rhumerus -1.94343 64.3791 -86.9862
rradius 142.623
rwrist -12.059
rhand -42.7552 -33.8675
rfingers 7.12502
rthumb -15.6226 -63.2567
lclavicle 7.05686e-015 7.55382e-015
lhumerus 7.82891 -65.5785 86.6881
lradius 137.481
lwrist 24.6234
lhand -35.7863 -58.3587
lfingers 7.12502
lthumb -8.90362 -28.5665
rfemur 2.61279 3.35707 16.7112
rtibia 3.57812e-015
rfoot -10.3106 -12.9937
rtoes -9.3113
lfemur -12.2878 3.0114 -11.386
ltibia 29.9659
lfoot -18.6461 9.75038
ltoes -55.9387
221
root -0.412981 18.6153 4.36421 0.120572 -7.71222 -3.30575
lowerback 32.9454 1.16826 0.143349
upperback 13.2819 1.39728 0.526608
thorax -2.78833 0.611975 0.0369552
lowerneck -8.7411 -0.980856 2.64081
upperneck 23.2004 -2.58312 3.09939
head 8.6852 -0.688463 0.338955
rclavicle -1.63003e-014 1.23246e-014
rhumerus -1.39455 64.1639 -86.7281
rradius 142.668
rwrist -11.9349
rhand -42.7101 -33.7948
rfingers 7.12502
rthumb -15.5792 -63.1873
lclavicle -1.63003e-014 1.23246e-014
lhumerus 8.36877 -65.8106 86.0901
lradius 137.624
lwrist 24.4392
lhand -35.5824 -58.2764
lfingers 7.12502
lthumb -8.70683 -28.4759
rfemur 2.40769 3.65363 16.8642
rtibia 2.78299e-015
rfoot -10.1611 -13.0814
rtoes -9.63289
lfemur -12.6268 3.27891 -11.2215
ltibia 30.4404
lfoot -18.7767 9.75149
ltoes -55.9317
222
root -0.410903 18.6027 4.34262 0.282569 -7.9015 -3.53902
lowerback 34.0036 1.24981 0.267933
upperback 12.814 1.53161 0.502003
thorax -3.24188 0.67674 -0.108605
lowerneck -8.33628 -1.01074 3.69325
upperneck 22.2794 -2.49541 1.99019
head 8.26887 -0.692402 -0.197322
rclavicle 7.95139e-016 5.56597e-015
rhumerus -1.11037 63.8462 -86.5512
rradius 142.838
rwrist -12.267
rhand -42.4709 -33.9113
rfingers 7.12502
rthumb -15.3488 -63.3216
lclavicle 7.95139e-016 5.56597e-015
lhumerus 8.71516 -65.9973 85.8707
lradius 137.7
lwrist 24.3291
lhand -35.1629 -58.0258
lfingers 7.12502
lthumb -8.30201 -28.209
rfemur 1.61896 3.83624 17.1255
rtibia 1.08038
rfoot -10.4903 -12.7944
rtoes -9.82823
lfemur -13.0815 3.51142 -10.9601
ltibia 30.9418
lfoot -18.8762 9.73979
ltoes -55.9607
